<svg width="57" height="54" viewBox="0 0 57 54" fill="none" xmlns="http://www.w3.org/2000/svg">
<path d="M55.2094 45.3411L44.1477 34.7335L45.6226 33.3192L44.1477 31.9048L39.7249 36.146L32.3485 29.0743L41.2096 20.5732C42.3891 20.9765 43.6234 21.1809 44.891 21.1809C47.8114 21.1809 50.5578 20.0892 52.6254 18.1103C55.8138 15.0509 56.7175 10.5058 54.9297 6.52915L54.3213 5.17483L49.568 9.733L45.7419 9.78364L45.7927 6.28342L50.638 1.63709L49.2296 1.05184C47.8486 0.477851 46.3796 0.187103 44.8695 0.187103C41.9471 0.187103 39.2027 1.27881 37.139 3.25777C34.1148 6.15587 33.1427 10.3895 34.5745 14.2124L25.7154 22.7078L13.1787 10.6878L14.6536 9.27343L6.54561 1.4964L2.11701 5.73757L10.2289 13.5165L11.7019 12.1021L24.2385 24.1222L15.3793 32.6176C14.1959 32.2106 12.9557 32.0061 11.6862 32.0061C8.76578 32.0061 6.01942 33.0978 3.95378 35.0768C0.759478 38.1381 -0.144239 42.6906 1.65341 46.6711L2.26372 48.0216L7.10897 43.3753L10.7571 43.3284L10.7043 46.9974L5.95096 51.5556L7.36326 52.139C8.74035 52.7073 10.2035 52.9981 11.7078 52.9981C14.6302 52.9981 17.3746 51.9083 19.4382 49.9293C22.4585 47.0331 23.4306 42.8032 22.0086 38.9878L30.8736 30.4867L38.25 37.5566L33.8234 41.8015L35.2983 43.2158L36.7732 41.8015L47.833 52.4072C48.8169 53.3526 50.1294 53.8722 51.5202 53.8722C52.911 53.8722 54.2216 53.3526 55.2074 52.4072C57.2398 50.4583 57.2398 47.2863 55.2074 45.3374L55.2094 45.3411ZM5.06876 5.73944L6.54366 4.32697L11.7038 9.27531L10.2289 10.6897L5.06876 5.73944ZM19.8353 39.1435C21.2809 42.3624 20.5474 46.0445 17.9673 48.5206C16.2968 50.1225 14.0766 51.0041 11.7117 51.0041C11.0329 51.0041 10.3639 50.931 9.71449 50.7865L12.7836 47.8434L12.8755 41.3063L6.23655 41.3926L3.06963 44.4295C2.37326 41.597 3.22807 38.6089 5.43259 36.4968C7.1031 34.8948 9.32523 34.0113 11.6901 34.0113C12.9147 34.0113 14.102 34.2458 15.2229 34.711L15.8742 34.9811L37.0373 14.687L36.7556 14.0623C35.3002 10.8378 36.0318 7.15566 38.6178 4.67587C40.2883 3.07394 42.5104 2.19045 44.8734 2.19045C45.558 2.19045 46.2329 2.26548 46.8882 2.40991L43.7232 5.44494L43.6313 11.8114L50.4483 11.7232L53.5193 8.77822C54.2079 11.605 53.3511 14.5875 51.1544 16.6959C49.4819 18.2979 47.2598 19.1814 44.8949 19.1814C43.6743 19.1814 42.4889 18.9469 41.372 18.4854L40.7225 18.2172L19.5556 38.5189L19.8353 39.1435ZM53.7365 50.9966C53.1457 51.5631 52.3594 51.8764 51.5241 51.8764C50.6889 51.8764 49.9025 51.5631 49.3118 50.9966L38.252 40.3909L42.6767 36.1479L53.7384 46.7555C54.959 47.926 54.959 49.828 53.7404 50.9966H53.7365Z" fill="white"/>
</svg>
