<svg width="59" height="57" viewBox="0 0 59 57" fill="none" xmlns="http://www.w3.org/2000/svg">
<path d="M57.9354 14.7899C56.069 8.72239 50.7907 3.66145 44.4625 1.87195C39.6508 0.529818 36.3263 0.641662 34.0225 2.29136C31.2521 4.27659 30.9313 7.8556 30.9313 10.4V17.3623C30.9313 24.2407 34.1975 27.7359 40.6131 27.7359H48.9827C51.6072 27.7359 55.3692 27.4283 57.4397 24.772C59.2186 22.591 59.3644 19.4035 57.9354 14.7899Z" fill="white" fill-opacity="0.64"/>
<path opacity="0.4" d="M49.884 32.7124C49.1257 31.8736 48.0176 31.3982 46.8803 31.3982H36.4402C31.3077 31.3982 27.1375 27.3998 27.1375 22.4785V12.4685C27.1375 11.378 26.6417 10.3155 25.7669 9.58853C24.9212 8.86154 23.7547 8.52601 22.6466 8.66582C15.7935 9.50465 9.49445 13.1116 5.3826 18.536C1.24158 23.9886 -0.274855 30.6433 1.03744 37.298C2.93298 46.9166 10.9526 54.6058 21.0135 56.4233C22.6174 56.7309 24.2213 56.8707 25.8252 56.8707C31.1035 56.8707 36.2069 55.3049 40.5521 52.2571C46.2095 48.3146 49.9714 42.275 50.8463 35.7042C50.9921 34.6137 50.6422 33.5233 49.884 32.7124Z" fill="white"/>
</svg>
